<svg width="23" height="23" viewBox="0 0 23 23" fill="none" xmlns="http://www.w3.org/2000/svg">
<path d="M19.175 17.125L17.75 15.7C18.0333 15.4333 18.2917 15.1458 18.525 14.8375C18.7583 14.5292 18.9667 14.2083 19.15 13.875C18.35 13.7917 17.5667 13.6417 16.8 13.425C16.0333 13.2083 15.3 12.9167 14.6 12.55L9.425 7.375C9.05833 6.675 8.76667 5.94583 8.55 5.1875C8.33333 4.42917 8.19167 3.65 8.125 2.85C7.79167 3.03333 7.47083 3.24167 7.1625 3.475C6.85417 3.70833 6.56667 3.96667 6.3 4.25L4.9 2.85C5.61667 2.11667 6.42917 1.50833 7.3375 1.025C8.24583 0.541667 9.225 0.2 10.275 0C9.975 1.65 10.0667 3.2625 10.55 4.8375C11.0333 6.4125 11.8667 7.79167 13.05 8.975C14.2333 10.1583 15.6125 10.9917 17.1875 11.475C18.7625 11.9583 20.375 12.05 22.025 11.75C21.8417 12.8 21.5042 13.7792 21.0125 14.6875C20.5208 15.5958 19.9083 16.4083 19.175 17.125ZM18.4 22.05L15.7 19.35C15.1333 19.5667 14.5542 19.7292 13.9625 19.8375C13.3708 19.9458 12.7583 20 12.125 20C10.725 20 9.4125 19.7333 8.1875 19.2C6.9625 18.6667 5.89583 17.9458 4.9875 17.0375C4.07917 16.1292 3.35833 15.0625 2.825 13.8375C2.29167 12.6125 2.025 11.3 2.025 9.9C2.025 9.26667 2.07917 8.65417 2.1875 8.0625C2.29583 7.47083 2.45833 6.89167 2.675 6.325L0 3.65L1.425 2.225L19.825 20.625L18.4 22.05ZM12.125 18C12.4583 18 12.7917 17.9792 13.125 17.9375C13.4583 17.8958 13.7833 17.8333 14.1 17.75L4.275 7.925C4.19167 8.25833 4.12917 8.5875 4.0875 8.9125C4.04583 9.2375 4.025 9.56667 4.025 9.9C4.025 12.15 4.8125 14.0625 6.3875 15.6375C7.9625 17.2125 9.875 18 12.125 18Z" fill="#306D58"/>
</svg>
