<svg width="22" height="13" viewBox="0 0 22 13" fill="none" xmlns="http://www.w3.org/2000/svg">
<path d="M19.465 12.7L16.99 11.85L18.94 6.475L21.065 10.85C21.2983 11.3 21.1983 11.7583 20.765 12.225C20.3317 12.6917 19.8983 12.85 19.465 12.7ZM13.19 11.75L14.265 2.4C14.2983 2.15 14.4108 1.97917 14.6025 1.8875C14.7942 1.79583 15.0233 1.79167 15.29 1.875L17.79 2.8C18.0233 2.9 18.1775 3.05 18.2525 3.25C18.3275 3.45 18.3233 3.66667 18.24 3.9L15.415 11.75H13.19ZM5.79 11.75L2.965 3.9C2.88167 3.66667 2.8775 3.44583 2.9525 3.2375C3.0275 3.02917 3.18167 2.88333 3.415 2.8L5.915 1.875C6.14833 1.775 6.36917 1.77083 6.5775 1.8625C6.78583 1.95417 6.90667 2.13333 6.94 2.4L7.99 11.75H5.79ZM1.49 12.7C1.05667 12.8333 0.665 12.6708 0.315 12.2125C-0.035 11.7542 -0.0933333 11.3 0.14 10.85L2.29 6.475L4.215 11.85L1.49 12.7ZM9.49 11.75L8.29 1C8.25667 0.716667 8.33583 0.479167 8.5275 0.2875C8.71917 0.0958333 8.95667 0 9.24 0H11.94C12.2233 0 12.4608 0.0958333 12.6525 0.2875C12.8442 0.479167 12.9233 0.716667 12.89 1L11.69 11.75H9.49Z" fill="#B45309"/>
</svg>
