<svg width="17" height="15" viewBox="0 0 17 15" fill="none" xmlns="http://www.w3.org/2000/svg">
<path d="M9.075 15H7.125C7.125 15 7.25 14.9219 7.5 14.7656C7.75 14.6094 8.02188 14.4344 8.31563 14.2406C8.60938 14.0469 8.88125 13.8719 9.13125 13.7156C9.38125 13.5594 9.50625 13.4812 9.50625 13.4812C10.5188 13.4062 11.4531 13.1 12.3094 12.5625C13.1656 12.025 13.8438 11.3062 14.3438 10.4062C13.2688 10.3062 12.25 10.0344 11.2875 9.59062C10.325 9.14687 9.4625 8.54375 8.7 7.78125C7.9375 7.01875 7.33125 6.15625 6.88125 5.19375C6.43125 4.23125 6.1625 3.2125 6.075 2.1375C5.1125 2.675 4.35938 3.41563 3.81562 4.35938C3.27187 5.30312 3 6.325 3 7.425C3 7.45 3 7.4875 3 7.5375C3 7.5875 3 7.625 3 7.65C3 7.65 2.925 7.68438 2.775 7.75313C2.625 7.82188 2.45938 7.89375 2.27813 7.96875C2.09687 8.04375 1.93125 8.11562 1.78125 8.18437C1.63125 8.25313 1.55625 8.2875 1.55625 8.2875C1.53125 8.15 1.51562 8.00625 1.50937 7.85625C1.50312 7.70625 1.5 7.5625 1.5 7.425C1.5 5.6 2.08125 3.99062 3.24375 2.59687C4.40625 1.20312 5.8875 0.3375 7.6875 0C7.4625 1.2375 7.53125 2.44688 7.89375 3.62812C8.25625 4.80937 8.88125 5.84375 9.76875 6.73125C10.6562 7.61875 11.6906 8.24375 12.8719 8.60625C14.0531 8.96875 15.2625 9.0375 16.5 8.8125C16.175 10.6125 15.3125 12.0938 13.9125 13.2563C12.5125 14.4188 10.9 15 9.075 15ZM3.75 13.5H7.125C7.4375 13.5 7.70312 13.3906 7.92188 13.1719C8.14062 12.9531 8.25 12.6875 8.25 12.375C8.25 12.0625 8.14375 11.7969 7.93125 11.5781C7.71875 11.3594 7.4625 11.25 7.1625 11.25H6.1875L5.8125 10.35C5.6375 9.9375 5.3625 9.60938 4.9875 9.36563C4.6125 9.12188 4.2 9 3.75 9C3.125 9 2.59375 9.21563 2.15625 9.64688C1.71875 10.0781 1.5 10.6125 1.5 11.25C1.5 11.875 1.71875 12.4062 2.15625 12.8438C2.59375 13.2812 3.125 13.5 3.75 13.5ZM3.75 15C2.7125 15 1.82812 14.6344 1.09687 13.9031C0.365625 13.1719 0 12.2875 0 11.25C0 10.2125 0.365625 9.32812 1.09687 8.59688C1.82812 7.86563 2.7125 7.5 3.75 7.5C4.5 7.5 5.18437 7.70312 5.80312 8.10938C6.42188 8.51562 6.88125 9.0625 7.18125 9.75C7.89375 9.775 8.5 10.0406 9 10.5469C9.5 11.0531 9.75 11.6625 9.75 12.375C9.75 13.1 9.49375 13.7188 8.98125 14.2312C8.46875 14.7437 7.85 15 7.125 15H3.75Z" fill="#4F46E5"/>
</svg>
