<svg width="14" height="18" viewBox="0 0 14 18" fill="none" xmlns="http://www.w3.org/2000/svg">
<path d="M7 18C5.05 18 3.39583 17.3208 2.0375 15.9625C0.679167 14.6042 0 12.95 0 11C0 9.71667 0.2125 8.425 0.6375 7.125C1.0625 5.825 1.6125 4.64583 2.2875 3.5875C2.9625 2.52917 3.71667 1.66667 4.55 1C5.38333 0.333333 6.2 0 7 0C7.81667 0 8.6375 0.333333 9.4625 1C10.2875 1.66667 11.0375 2.52917 11.7125 3.5875C12.3875 4.64583 12.9375 5.825 13.3625 7.125C13.7875 8.425 14 9.71667 14 11C14 12.95 13.3208 14.6042 11.9625 15.9625C10.6042 17.3208 8.95 18 7 18ZM8 15C8.28333 15 8.52083 14.9042 8.7125 14.7125C8.90417 14.5208 9 14.2833 9 14C9 13.7167 8.90417 13.4792 8.7125 13.2875C8.52083 13.0958 8.28333 13 8 13C7.16667 13 6.45833 12.7083 5.875 12.125C5.29167 11.5417 5 10.8333 5 10C5 9.71667 4.90417 9.47917 4.7125 9.2875C4.52083 9.09583 4.28333 9 4 9C3.71667 9 3.47917 9.09583 3.2875 9.2875C3.09583 9.47917 3 9.71667 3 10C3 11.3833 3.4875 12.5625 4.4625 13.5375C5.4375 14.5125 6.61667 15 8 15Z" fill="#006C49"/>
</svg>
